<svg width="55" height="55" viewBox="0 0 55 55" fill="none" xmlns="http://www.w3.org/2000/svg">
<path d="M27 32V43" stroke="#6C5CE7" stroke-linecap="round" stroke-linejoin="round"/>
<path d="M29.5 34H25.75C25.2859 34 24.8408 34.158 24.5126 34.4393C24.1844 34.7206 24 35.1022 24 35.5C24 35.8978 24.1844 36.2794 24.5126 36.5607C24.8408 36.842 25.2859 37 25.75 37H28.25C28.7141 37 29.1592 37.158 29.4874 37.4393C29.8156 37.7206 30 38.1022 30 38.5C30 38.8978 29.8156 39.2794 29.4874 39.5607C29.1592 39.842 28.7141 40 28.25 40H24" stroke="#6C5CE7" stroke-width="2" stroke-linecap="round" stroke-linejoin="round"/>
<path d="M10.3125 21.2695L27.5 7.73438L44.6875 21.2695V42.5391C44.6875 43.5647 44.2851 44.5483 43.5688 45.2736C42.8525 45.9988 41.881 46.4062 40.8681 46.4062H14.1319C13.119 46.4062 12.1475 45.9988 11.4312 45.2736C10.7149 44.5483 10.3125 43.5647 10.3125 42.5391V21.2695Z" stroke="#6C5CE7" stroke-width="4" stroke-linecap="round" stroke-linejoin="round"/>
<path d="M18.0469 46.4062V28.3594H36.9531V46.4062" stroke="#6C5CE7" stroke-width="4" stroke-linecap="round" stroke-linejoin="round"/>
</svg>
