<svg width="19" height="24" viewBox="0 0 19 24" fill="none" xmlns="http://www.w3.org/2000/svg">
<path d="M1.26246 7.83137C3.19889 -1.28414 15.8103 -1.27361 17.7369 7.84189C18.8673 13.1891 16.1546 17.0673 13.4318 19.8672C12.4443 20.8878 9.49994 23 9.49994 23C9.49994 23 6.56049 20.8886 5.5673 19.8672C2.85434 17.0673 0.132054 13.1786 1.26246 7.83137Z" stroke="#5C5C5C" stroke-width="1.5"/>
<path d="M9.5 12C11.1569 12 12.5 10.6569 12.5 9C12.5 7.34315 11.1569 6 9.5 6C7.84315 6 6.5 7.34315 6.5 9C6.5 10.6569 7.84315 12 9.5 12Z" stroke="#5C5C5C" stroke-width="1.5"/>
</svg>
