<svg width="20" height="26" viewBox="0 0 20 26" fill="none" xmlns="http://www.w3.org/2000/svg">
<path d="M1.26701 8.16604C3.23701 -1.39604 16.067 -1.385 18.027 8.17709C19.177 13.7863 16.4173 17.8544 13.6473 20.7915C12.6427 21.8621 9.6473 24.0778 9.6473 24.0778C9.6473 24.0778 6.65688 21.863 5.64648 20.7915C2.88648 17.8544 0.117007 13.7752 1.26701 8.16604Z" stroke="#5C5C5C" stroke-width="1.5"/>
<path d="M10.12 12.6369C11.8431 12.6369 13.24 11.0945 13.24 9.19189C13.24 7.28927 11.8431 5.74689 10.12 5.74689C8.39687 5.74689 7 7.28927 7 9.19189C7 11.0945 8.39687 12.6369 10.12 12.6369Z" stroke="#5C5C5C" stroke-width="1.5"/>
</svg>
